<?xml version="1.0" encoding="UTF-8"?>
<svg id="Layer_1" data-name="Layer 1" xmlns="http://www.w3.org/2000/svg" viewBox="0 0 1038.33 305.22">
  <defs>
    <style>
      .cls-1 {
        fill: #59595b;
      }

      .cls-1, .cls-2, .cls-3 {
        fill-rule: evenodd;
        stroke-width: 0px;
      }

      .cls-2 {
        fill: #d61923;
      }

      .cls-3 {
        fill: #babbbe;
      }
    </style>
  </defs>
  <path class="cls-1" d="m236.99,254.95l16.76-9.58c13.76-7.78,22.14-22.74,22.14-38.9v-107.72c0-16.16-8.38-30.52-22.14-38.9l-16.76-9.58-22.74,39.5,16.16,9.58v107.12l-16.16,8.98,22.74,39.5h0Zm-59.25,34.11l-22.74-39.5-16.76,9.58-92.76-53.26v-106.53l92.76-53.26,16.76,9.58,23.34-39.5-16.76-9.58-1.2-.6c-5.98-3.59-12.57-5.39-19.15-5.98h-4.79,1.2-3.59c-6.58.6-13.76,2.39-19.15,5.98l-1.2.6L22.14,59.85C8.38,68.22,0,82.59,0,98.75v107.72c0,16.16,8.38,30.52,22.14,38.9l92.76,53.26,1.2.6c6.58,3.59,13.76,5.98,20.95,5.98h2.39c7.18,0,14.36-2.39,20.95-5.98l17.36-10.17Z"/>
  <path class="cls-2" d="m212.45,70.62l14.96-25.73-39.5-22.74-40.7,69.42c-9.58,16.16-14.96,36.51-14.96,61.04,0,14.96,2.99,31.72,8.98,47.28.6-6.58,2.39-12.57,5.98-18.55l65.23-110.72h0Z"/>
  <path class="cls-3" d="m153.21,224.42l34.71,59.25,38.9-22.74c-16.16-27.53-31.72-55.06-47.88-82.59-1.8-2.99-5.39-9.58-8.38-14.96l-13.76,23.34c-7.18,11.37-8.38,26.93-3.59,37.7Z"/>
  <path class="cls-1" d="m424.31,92.76h0c-.6-1.2-.6-2.39-1.2-2.99-.6-.6-1.2-.6-2.39-.6s-2.39,0-2.99.6c-.6.6-1.2,1.8-1.2,2.99l-17.95,73.01h43.09l-17.36-73.01h0Zm71.22,147.82c0,1.2-.6,2.39-1.2,2.99s-1.8,1.2-2.99,1.2h-26.33c-1.2,0-2.39-.6-2.99-1.2-.6-.6-1.2-1.8-1.8-2.99l-11.37-46.68h-56.85l-11.37,46.68c-.6,1.2-.6,2.39-1.8,2.99-.6.6-1.8,1.2-2.99,1.2h-26.33c-1.2,0-2.39-.6-2.99-1.2-.6-.6-1.2-1.8-1.2-2.99v-1.2l40.1-154.4c1.2-5.98,3.59-10.17,6.58-13.76,2.99-2.99,5.98-5.98,8.98-7.78,2.99-1.8,6.58-2.99,9.58-3.59,3.59-.6,6.58-.6,8.98-.6s5.39,0,8.98.6c3.59.6,6.58,1.8,9.58,3.59,2.99,1.8,5.98,4.19,8.98,7.78,2.99,2.99,4.79,7.78,6.58,13.76l41.29,154.4s0,.6.6,1.2c-.6-.6,0,0,0,0Z"/>
  <path class="cls-1" d="m545.2,242.98c-1.2,1.2-1.8,1.8-3.59,1.8h-22.74c-1.2,0-2.39-.6-3.59-1.8-1.2-1.2-1.2-2.39-1.2-3.59l-.6-174.75c0-1.2.6-2.39,1.2-3.59,1.2-1.2,2.39-1.2,3.59-1.2h22.74c1.2,0,2.39.6,3.59,1.2.6,1.2,1.2,2.39,1.2,3.59l.6,174.75c0,1.8-.6,2.99-1.2,3.59Z"/>
  <path class="cls-1" d="m575.12,105.93v-19.15c0-2.99,2.99-5.39,4.79-5.98l22.74-13.17c1.8-.6,4.79.6,4.79,3.59v34.11h22.14c1.2,0,2.39.6,3.59,1.2,1.2,1.2,1.2,2.39,1.2,3.59v15.56c0,1.2-.6,2.39-1.2,3.59-1.2,1.2-2.39,1.2-3.59,1.2h-22.14v84.38c0,1.8.6,2.99,1.2,4.19.6,1.2,1.8,1.8,2.99,1.8s2.99.6,5.39.6h13.17c3.59,0,5.39,1.2,5.39,3.59v15.56c0,2.39-1.8,4.19-4.79,4.19-2.99.6-5.98.6-8.38,1.2-2.99.6-5.39.6-8.38.6-6.58,0-12.57-.6-17.95-1.2-4.79-1.2-8.98-2.99-11.97-5.98-2.99-2.99-5.39-6.58-6.58-11.97-1.2-4.79-2.39-11.97-2.39-19.75v-101.74Z"/>
  <path class="cls-1" d="m690.03,90.37c-1.2,1.2-2.39,1.2-3.59,1.2h-23.94c-1.2,0-2.39-.6-3.59-1.2-1.2-1.2-1.8-2.39-1.8-3.59v-21.54c0-1.2.6-2.39,1.8-3.59,1.2-1.2,2.39-1.2,3.59-1.2h23.94c1.2,0,2.39.6,3.59,1.2,1.2,1.2,1.2,2.39,1.2,3.59v21.54c0,1.2-.6,2.39-1.2,3.59Z"/>
  <path class="cls-1" d="m688.83,242.98h0c-1.2,1.2-2.39,1.8-3.59,1.8h-22.74c-1.2,0-2.39-.6-3.59-1.8-1.2-1.2-1.2-2.39-1.2-3.59V110.72c0-1.2.6-2.39,1.2-3.59,1.2-1.2,2.39-1.2,3.59-1.2h22.74c1.2,0,2.39.6,3.59,1.2,1.2,1.2,1.2,2.39,1.2,3.59v128.67c.6,1.8,0,2.99-1.2,3.59Z"/>
  <path class="cls-1" d="m831.27,243.57c-1.2,1.2-2.39,1.2-3.59,1.2h-22.74c-1.2,0-2.39-.6-3.59-1.2-1.2-1.2-1.2-2.39-1.2-3.59v-5.39c-6.58,4.19-12.57,7.18-17.95,8.98-5.98,1.8-12.57,2.99-20.35,2.99-5.98,0-11.97-.6-17.36-2.39-5.39-1.8-9.58-4.19-13.17-7.78-4.79-4.79-7.78-10.77-9.58-17.95-1.8-7.18-2.99-16.16-2.99-26.93v-80.19c0-1.2.6-2.39,1.2-3.59,1.2-1.2,2.39-1.8,3.59-1.8h22.74c1.2,0,2.39.6,3.59,1.8,1.2,1.2,1.2,2.39,1.2,3.59v80.19c0,5.98.6,11.37,1.2,14.96.6,3.59,2.39,6.58,4.79,8.98,1.8,1.2,3.59,2.39,5.98,3.59,2.39.6,5.39,1.2,8.98,1.2,2.39,0,4.79-.6,7.18-1.2,2.39-.6,4.79-1.8,7.78-2.39,2.39-1.2,4.79-1.8,7.18-2.99,2.39-1.2,4.19-2.39,5.98-2.99v-99.34c0-1.2.6-2.39,1.2-3.59,1.2-1.2,2.39-1.8,3.59-1.8h22.74c1.2,0,2.39.6,3.59,1.8,1.2,1.2,1.2,2.39,1.2,3.59v128.67c0,1.2-.6,2.39-1.2,3.59Z"/>
  <path class="cls-1" d="m1036.54,242.98c-1.2,1.2-2.39,1.8-3.59,1.8h-22.74c-1.2,0-2.39-.6-3.59-1.8-1.2-1.2-1.2-2.39-1.2-3.59v-83.19c0-4.79-.6-8.38-.6-11.37-.6-2.99-1.8-5.39-2.99-7.18-1.2-1.8-2.99-2.99-5.39-3.59s-5.39-1.2-8.38-1.2c-2.39,0-5.39.6-9.58,1.2-4.19,1.2-8.38,2.39-13.17,4.79.6,2.99.6,5.39.6,8.38v92.16c0,1.2-.6,2.39-1.2,3.59-1.2,1.2-2.39,1.8-3.59,1.8h-22.74c-1.2,0-2.39-.6-3.59-1.8-1.2-1.2-1.2-2.39-1.2-3.59v-83.19c0-4.79,0-8.38-.6-11.37-.6-2.99-1.2-5.39-2.39-7.18-1.2-1.8-2.99-2.99-5.39-3.59-2.39-.6-4.79-1.2-8.38-1.2-4.79,0-12.57,2.39-22.74,8.38v98.15c0,1.2-.6,2.39-1.2,3.59-1.2,1.2-2.39,1.8-3.59,1.8h-22.74c-1.2,0-2.39-.6-3.59-1.8-1.2-1.2-1.2-2.39-1.2-3.59V110.72c0-1.2.6-2.39,1.2-3.59,1.2-1.2,2.39-1.2,3.59-1.2h21.54c1.2,0,2.39.6,3.59,1.2,1.2,1.2,1.2,2.39,1.2,3.59v5.39c5.39-3.59,10.77-5.98,16.16-8.38,5.39-2.39,11.97-3.59,19.15-3.59s13.17,1.2,17.36,2.99c4.79,1.8,8.38,4.79,11.37,8.38,5.98-3.59,12.57-5.98,18.55-8.38,5.98-1.8,13.76-2.99,22.14-2.99s14.96,1.2,20.35,4.19c5.39,2.39,9.58,6.58,12.57,10.77,2.99,4.79,4.79,10.17,5.98,16.16,1.2,5.98,1.8,13.17,1.8,20.35v83.78c-.6,1.8-.6,2.99-1.8,3.59Z"/>
</svg>