<?xml version="1.0" encoding="UTF-8"?>
<svg id="Layer_1" data-name="Layer 1" xmlns="http://www.w3.org/2000/svg" viewBox="0 0 1133.33 345.78">
  <defs>
    <style>
      .cls-1 {
        fill: #1a1b19;
      }

      .cls-1, .cls-2, .cls-3, .cls-4, .cls-5, .cls-6, .cls-7 {
        stroke-width: 0px;
      }

      .cls-2 {
        fill: #1c1c1b;
      }

      .cls-3 {
        fill: #dc0e1b;
      }

      .cls-4 {
        fill: #dd0e1b;
      }

      .cls-5 {
        fill: #dd0a1a;
      }

      .cls-6 {
        fill: #8d8f8f;
      }

      .cls-7 {
        fill: #ee8c73;
      }
    </style>
  </defs>
  <path class="cls-7" d="m126.91,344.88c-.02.31-.07.61-.16.9h-26.57c-.05-.31-.1-.62-.15-.92,1.12-1.45,2.76-1.75,4.41-1.82,6.03-.26,12.06-.26,18.09,0,1.65.07,3.29.36,4.39,1.84Z"/>
  <path class="cls-3" d="m126.91,344.88c-8.96,0-17.93-.02-26.89-.02-6.46-.28-12.78-1.34-18.96-3.31-14.52-4.63-20.99-14.78-18.92-29.86.25-1.82.56-3.63.84-5.45-.91-2.8-.21-5.55.78-8.09,7.61-19.56,7.07-39.53,3.36-59.71-1.7-9.21-2.91-18.51-4.45-27.75-.46-2.73-.93-5.5-.59-8.22,1.36-11-.1-21.98-.14-32.96-.05-12.97,1.52-25.68,5.06-38.09,1.2-4.2-.84-8.96,2.52-12.66,4.19-10.56,8.12-21.23,12.62-31.65,7.88-18.23,10.65-37.29,10.19-56.97-.03-1.1.37-2.66-.2-3.23-7.37-7.4,1.47-15.14-.45-22.8-.58-2.3,3.19-4.08,6.27-4.08,10.32,0,20.64-.12,30.96.06,5.17.09,8.07,3.51,7.41,8.6-.34,2.6.78,4.63,1.51,6.86,1.14,3.51,3.56,7.09-1,10.11-.56.37-.67,1.7-.66,2.58.31,15.77-.26,31.65,5.48,46.8,5.71,15.06,11.32,30.16,16.97,45.25,2.84,3.09,1.07,7.04,1.96,10.54,4.55,17.91,4.64,36.1,5.03,54.55.47,22.39-5.3,43.66-6.87,65.56-1.02,14.13-1.43,28.26,3.47,41.98,1.39,3.88,3.38,7.81,2.37,12.23.16,1.08.27,2.17.48,3.25,3.46,17.51-4.01,29.53-21.27,33.94-5.52,1.41-11.14,2.41-16.87,2.54Z"/>
  <path class="cls-1" d="m164.56,305.15c-8.72-20.56-10.11-41.84-6.42-63.66,2.14-12.65,5.87-25.33,5.77-37.98-.2-23.65,2.82-47.68-4.62-70.86-1.36-4.23-.8-8.23-.68-12.36,4.26-11.66,10.07-22.8,11.87-35.29,1.03-7.13,3.11-15.28.56-21.21-3.03-7.06,1.11-12.97-.55-19.35-.66-2.51,2.21-4.49,5.17-4.51,8.12-.06,16.24-.22,24.34.08,3.5.13,5.87,2.12,4.94,6.23-.04.18-.22.36-.19.51,3.32,16.05-1.98,32.81,4.01,48.63,3.37,8.9,7.41,17.6,10.14,26.69,5.98,19.88,8.76,40.13,8.26,61.08-.48,20.27-4.37,40.05-6.21,60.09-.89,9.69,1.58,18.93,4.74,28,1.32,3.8,2.7,7.57,3.09,11.65.98,10.15-3.05,17-12.43,20.92-7.28,3.04-15.02,3.52-22.73,3.87-9.77.45-19.52-.07-29.06-2.53Z"/>
  <path class="cls-6" d="m69.5,118.76c.12,15.83-6.66,30.77-6.01,46.69.3,7.34,1.19,14.87.53,22.01-2.26,24.23,5.53,47.23,7.37,70.91,1.3,16.76-3.33,32.33-8.41,47.88-10.81.86-21.62,1.72-32.48.96-3.85-.27-7.72-.61-11.49-1.38-15.48-3.15-22.11-13.65-17.64-28.92,3.74-12.76,7.47-25.39,5.6-38.91-1.58-11.45-3.89-22.87-4.47-34.38-.99-19.88-1.61-39.65,1.67-59.69,2.69-16.41,9.57-30.91,14.78-46.2,3.8-11.15,5.77-23.06,3.33-34.16-1.35-6.17.57-11.52-.31-17.22-.5-3.27,2.34-5.34,5.69-5.4,7.92-.15,15.85-.06,23.78-.04,2.8,0,5.39,1.85,4.86,4.14-.92,4.04,1.02,7.11,1.84,10.57.2.87.64,1.95.33,2.64-6.12,13.46-1.46,26.53,1.88,39.41,1.91,7.35,4.9,14.56,9.14,21.07Z"/>
  <path class="cls-2" d="m432.61,256.63c0,17.29-.18,34.59.12,51.88.08,4.52-1.36,5.56-5.53,5.28-5.14-.35-10.35-.44-15.48.02-4.65.42-5.36-1.49-5.28-5.54.23-12.51-.04-25.02.17-37.53.06-3.59-.89-4.66-4.58-4.6-13.64.23-27.29.23-40.94,0-3.53-.06-4.24,1.01-4.19,4.32.2,12.69-.07,25.39.17,38.08.08,3.91-.6,5.6-5.02,5.27-5.87-.43-11.8-.23-17.69-.05-2.76.08-3.85-.56-3.84-3.61.1-36.06.1-72.11,0-108.17,0-2.79,1.02-3.39,3.54-3.34,6.45.14,12.91.2,19.36-.02,3.05-.1,3.64,1.04,3.61,3.82-.14,12.14.07,24.28-.14,36.42-.06,3.35.72,4.35,4.22,4.29,13.83-.22,27.66-.19,41.49-.02,3.19.04,4.03-.96,3.99-4.05-.16-12.14.03-24.28-.13-36.42-.04-3.04.7-4.19,3.93-4.05,5.89.25,11.81.28,17.7,0,3.55-.17,4.65.8,4.61,4.49-.2,17.84-.09,35.69-.09,53.53Z"/>
  <path class="cls-4" d="m325.73,95.75c-.68-34.13,25.78-58.66,53.22-60.69,20.06-1.49,38.5,2.81,52.35,19.1,2.19,2.57,2.65,4.25-.3,6.62-4.16,3.34-8.09,6.99-11.84,10.79-2.22,2.25-3.22,2.12-5.3-.36-11.75-13.94-29.99-17.39-44.03-8.62-11.95,7.46-17.93,24.1-15.26,40.47,4.19,25.71,33.92,35.14,53.56,20.53,2.61-1.94,4.73-4.62,6.85-7.14,1.6-1.9,2.7-1.76,4.37-.06,3.75,3.8,7.42,7.76,11.63,11,4.15,3.19,3.19,5.45.19,8.7-16.62,18.05-45.72,24.47-69.8,15.2-21.24-8.17-35.58-30.51-35.64-55.53Z"/>
  <path class="cls-4" d="m889.23,115.32c4.87,4.28,9.67,8.86,14.88,12.92,3.2,2.5,2.89,4.29.4,6.94-10.1,10.74-22.75,16.93-36.98,19.44-28.08,4.95-53.42-8.81-64.4-34.2-10.03-23.2-4.29-55.77,18.49-73.64,24.04-18.87,65.48-13.65,81.6,6.53,2.71,3.39,3.39,5.34-.33,8.27-3.75,2.95-7.14,6.4-10.38,9.92-2.49,2.7-3.8,3.16-6.59-.13-8.6-10.14-19.8-14.59-33.06-12.16-18.95,3.47-29.86,22.34-26.53,44.19,3.94,25.86,33.8,35.82,53.74,20.83,3.34-2.51,6.06-5.84,9.18-8.91Z"/>
  <path class="cls-1" d="m616.28,195.76c17.68-.14,33.32,4.79,45.53,18.35,2.81,3.12,3.61,5.29-.17,8.31-4.16,3.32-7.96,7.13-11.64,11-2.13,2.24-3.05,1.89-4.97-.37-10.68-12.54-25.68-16.66-39.63-11.22-14.61,5.71-22.76,22.81-20.8,40.48,2.77,24.98,29.21,37.09,51.12,24.69,3.93-2.22,6.87-5.57,9.62-9,1.55-1.93,2.54-2.05,4.3-.36,4.39,4.2,8.82,8.37,13.44,12.32,2.13,1.82,1.77,3.13.24,4.98-2.74,3.33-6.26,5.68-9.72,8.11-27.93,19.57-62.4,16.94-82.66-7.62-15.22-18.45-17.22-40.07-9.45-62.37,7.55-21.68,23.87-33.19,45.95-37.23,2.85-.52,5.88-.07,8.83-.07Z"/>
  <path class="cls-4" d="m583.47,154.88c-16.4.12-29.7-5.88-37.6-20.64-8.02-14.97-8.06-30.47.67-45.2,8.76-14.79,23.11-19.92,39.46-19.87,9.92.03,19.25,2.87,27.17,9.35,2.85,2.33,4.14,4.23.65,7.29-3.17,2.78-5.88,6.09-8.58,9.36-2.03,2.46-3.48,3.48-6.47.82-6.78-6.03-14.96-6.69-22.64-2.6-7.84,4.17-10.87,12.05-10.37,20.57.54,9.2,4.81,16.76,14.03,19.99,7.11,2.5,13.92.67,19.65-4.07,2.26-1.87,3.45-1.75,5.29.3,2.71,3.01,5.52,5.97,8.62,8.56,2.92,2.44,2.03,3.89-.42,5.89-8.59,7.01-18.09,11.22-29.44,10.24Z"/>
  <path class="cls-5" d="m1041.81,94.47c0,17.66-.11,35.31.09,52.97.04,3.88-.58,5.66-5.02,5.3-5.5-.44-11.06-.26-16.58-.04-3.01.12-3.66-1.01-3.66-3.8.08-36.05.09-72.09,0-108.14,0-2.99,1.06-3.74,3.84-3.66,5.71.17,11.44.26,17.14-.03,3.56-.18,4.28,1.19,4.26,4.43-.13,17.65-.06,35.31-.06,52.97Z"/>
  <path class="cls-4" d="m750.29,115.76c-7.56,0-15.13-.14-22.68.06-3.25.09-4.67-.7-4.49-4.24.27-5.51.14-11.04.04-16.55-.04-2.33.76-3.23,3.18-3.21,16.23.08,32.46.09,48.69,0,2.6-.01,3.03,1.17,3,3.34-.08,5.7-.18,11.41.04,17.11.12,3.16-1.33,3.59-3.99,3.55-7.93-.13-15.86-.05-23.79-.05Z"/>
  <path class="cls-1" d="m520.83,252.39c.05-1.1.79-1.3,1.44-1.63,11.54-5.88,16.82-18.08,13.18-30.44-3.77-12.81-15.12-20.98-30.73-21.35-15.67-.38-31.35-.05-47.02-.35-3.86-.07-4.45,1.3-4.39,4.67.19,11.4.07,22.81.07,34.22,0,23.36-.02,46.73.03,70.09,0,2.1-1.17,4.95,3.06,4.84,18.24-.47,36.52.96,54.72-1,19.25-2.07,30.81-14.97,29.97-34.12-.57-12.92-8.43-20.85-20.34-24.92Zm-40.72-10.89c.12-3.31.03-6.62.03-9.93q0-11.94,12.01-11.91c2.4,0,4.81-.11,7.18.15,7.42.81,12.72,5.93,12.74,12.11.02,6.35-4.97,11.52-12.55,12.22-5.49.5-11.05.15-16.58.29-2.18.06-2.91-.82-2.83-2.93Zm24.81,51.09c-7.3,1.71-14.65,0-21.97.2-2.42.06-1.9-1.72-1.91-3.09-.04-3.85-.01-7.7-.01-11.56v-1.65q0-13.54,13.82-13.31c3.84.07,7.66.5,11.36,1.68,8.54,2.72,11.08,5.8,10.92,13.44-.15,6.97-4.91,12.57-12.21,14.28Z"/>
  <path class="cls-4" d="m486.48,68.37c-26.03.11-44.26,17.77-44.17,42.77.09,24.14,19.91,43.79,44.06,43.67,24.39-.11,42.78-19.02,42.68-43.91-.09-24.4-18.35-42.64-42.58-42.53Zm.34,65.13c-10.93.51-19.72-8.75-20.07-21.1-.34-12.3,8.14-21.48,20.32-21.97,9.43-.38,18.02,9.46,18.33,21.02.32,11.64-8.05,21.57-18.59,22.05Z"/>
  <path class="cls-4" d="m958.5,68.36c-25.2.01-43.48,17.66-43.55,42.05-.07,25.44,18.03,44.28,42.67,44.4,24.41.11,43.11-18.54,43.36-43.24.24-24.51-18.14-43.22-42.48-43.2Zm.63,65.13c-10.64.32-19.07-8.37-19.66-20.26-.64-12.99,7.39-22.19,19.89-22.77,9.58-.45,17.97,8.86,18.64,20.69.66,11.54-8.19,22.02-18.87,22.34Z"/>
  <path class="cls-4" d="m1133.17,100.45c-.32-14.49-9.36-26.32-23.49-29.84-14.48-3.61-28.85-2.46-42.41,4.51-7.17,3.68-7.2,3.62-2.78,9.96,1.37,1.96,2.94,3.81,4.07,5.9,1.45,2.66,3,3.02,5.62,1.46,6.34-3.76,13.4-5.25,20.68-4.91,5.61.26,11.04,1.69,14.06,7.18,2.41,4.38,1.57,5.64-3.26,5.54-3.13-.07-6.31.26-9.4-.14-10.28-1.31-19.24,2.02-27.64,7.44-14.16,9.14-14.98,30.4-1.6,40.56,10.9,8.29,27.15,8.33,38.22.21,1.25-.92,2.1-2.61,4.46-2.58-1.4,7.25,3.14,7.32,8.3,6.98,3.86-.25,7.76-.22,11.62,0,2.91.17,3.75-.78,3.72-3.69-.14-16.19.2-32.4-.15-48.58Zm-25.27,27.75c-3.76,7.36-15.41,10.75-22.58,6.58-3.05-1.78-4.13-4.58-4.04-7.88.1-3.71,1.49-6.8,5.03-8.51,4.55-2.2,9.34-3.23,14.42-2.66,9.03.27,11.34,4.3,7.17,12.47Z"/>
  <path class="cls-4" d="m699.18,100.59c-.3-14.85-10.23-27.86-24.14-30.51-15.31-2.92-30.39-1.6-44.39,6.34-3.66,2.07-4.19,3.93-1.32,7.05,1.73,1.88,3.19,4.06,4.44,6.3,1.89,3.41,3.81,4.45,7.62,2.15,5.96-3.6,12.78-4.64,19.67-4.39,5.08.18,9.75,1.78,13.21,5.84,1.5,1.76,2.57,3.91,1.7,6.07-.94,2.34-3.26.77-4.85.71-12.39-.47-24.55-.77-35.56,6.79-9.44,6.48-13.07,15.14-11.61,26.06,1.37,10.21,7.97,16.35,17.34,19.43,12.44,4.08,23.92,2.07,35.01-8.3-1.52,7.59,1.04,9.3,6.52,8.67,4.18-.48,8.47-.24,12.7-.04,2.78.13,3.84-.58,3.82-3.61-.15-16.18.16-32.36-.17-48.53Zm-25.2,27.63c-3.74,7.32-15.52,10.73-22.62,6.56-3.05-1.79-4.12-4.65-4.02-7.91.11-3.68,1.5-6.81,5.07-8.51,4.57-2.17,9.36-3.2,14.21-2.64,9.3.27,11.57,4.25,7.36,12.5Z"/>
</svg>