<?xml version="1.0" encoding="UTF-8"?>
<svg id="Layer_1" data-name="Layer 1" xmlns="http://www.w3.org/2000/svg" viewBox="0 0 1135.66 262.26">
  <defs>
    <style>
      .cls-1 {
        fill: #59595b;
      }

      .cls-1, .cls-2, .cls-3, .cls-4, .cls-5, .cls-6, .cls-7, .cls-8, .cls-9 {
        stroke-width: 0px;
      }

      .cls-2 {
        fill: #039dd8;
      }

      .cls-3 {
        fill: #025395;
      }

      .cls-4 {
        fill: #0282c0;
      }

      .cls-5 {
        fill: #027fbc;
      }

      .cls-6 {
        fill: #0262a2;
      }

      .cls-7 {
        fill: #005597;
      }

      .cls-8 {
        fill: #0064a5;
      }

      .cls-9 {
        fill: #0074b2;
      }
    </style>
  </defs>
  <path class="cls-2" d="m183.69,138.32c5.88-6.03,10.95-12.61,13.61-20.72,5.91-17.98,2.26-34.47-8.48-49.52-7.85-10.99-18.38-18.41-31.8-21.23-6.46-1.35-12.97-1.08-19.45-.09-1.65.25-3.27.68-4.96.45-.85-5.96-3.9-11.09-6.29-16.47-4.3-9.69-9.79-18.85-12.83-29.09C121.1,0,128.81-.22,136.53.16c17.61.88,34.62,4.63,50.44,12.5,42.29,21.06,67.75,54.85,74.17,101.74,5.51,40.2-6.52,75.47-33.42,105.73-1.19,1.34-2.3,2.83-3.97,3.69-5.12-9.61-9.46-19.6-14.02-29.48-5.14-11.14-10.4-22.23-15.59-33.34-3.52-7.54-6.65-15.27-10.45-22.68Z"/>
  <path class="cls-1" d="m456.39,68.03c-4.17-2.62-7.52-4.94-11.06-6.93-14.31-8.05-29.57-11.6-45.98-9.28-5.93.84-11.53,2.63-16.53,6.01-12.03,8.15-13.84,23.69-4,34.37,5.44,5.9,12.27,9.84,19.27,13.55,10.99,5.84,22.41,10.81,33.58,16.27,7.39,3.61,14.42,7.79,20.98,12.75,11.56,8.74,18.18,20.31,18.77,34.84.55,13.59-4.67,25.18-13.91,34.98-11.35,12.04-25.71,18.5-41.58,22.06-21.64,4.85-42.85,2.1-63.83-3.85-3.16-.9-7.24-.87-9.08-3.55-1.7-2.47-.48-6.19-.51-9.35-.06-5.91.04-11.83.09-17.74,0-.1.17-.2.46-.53,1.53.26,2.85,1.32,4.27,2.09,12.5,6.79,25.62,11.87,39.86,13.42,11.11,1.21,22.13.88,32.77-3.15,5.03-1.91,9.56-4.58,13.34-8.47,9.77-10.06,9.84-25.62.14-35.76-4.37-4.56-9.75-7.72-15.29-10.56-12.68-6.52-25.5-12.78-38.15-19.35-8.09-4.2-15.68-9.18-22.74-15.03-23.31-19.29-19.43-54.69,4.76-70.15,9.53-6.09,19.98-9.41,31.05-11.04,16.7-2.45,33.32-1.1,49.89,1.33,3.75.55,7.47,1.33,11.21,1.93,1.62.26,2.29.98,2.28,2.7-.06,9.25-.03,18.49-.03,28.43Z"/>
  <path class="cls-1" d="m1023.25,116.19c5.08-8.07,10.16-16.15,15.23-24.23.66-1.06,1.36-1.89,2.76-2.07,13.59-1.79,27.2-3.17,40.68.48,18.64,5.05,28.66,17.83,29.84,37.18.62,10.16.41,20.32.49,30.48.06,8.19.1,16.38.16,24.57.02,3.34.3,6.65,1.02,9.94,1.29,5.86,4.74,9.68,10.46,11.49,3.58,1.13,7.27,1.73,11.76,2.01-3.75,5.87-7.15,11.2-10.57,16.51-.53.83-1.4,1.15-2.37,1.06-5.43-.51-10.9-.55-16.2-2.13-11.45-3.41-17.52-10.63-18.59-22.55-.28-3.17-.31-6.36-.32-9.55-.04-10.47,0-20.94-.04-31.41,0-1.46.44-3.03-.59-4.51-2.11-.12-4.07.77-6.06,1.32-10.09,2.78-20.24,5.31-30.08,8.91-4,1.46-7.83,3.24-11.52,5.39-12.65,7.38-10.55,23.45-3.02,30.54,5.09,4.79,11.22,7.08,17.98,7.97,7.01.92,13.94.18,20.8-1.29,1.32-.28,2.59-.73,4.54-.37-4.62,6.24-9.03,12.17-13.41,18.13-.71.97-1.78,1.15-2.78,1.37-12.28,2.68-24.39,2.58-36.16-2.41-15.77-6.69-25.45-21.04-24.98-37.81.4-14.42,7.51-24.63,20.71-30.51,7.95-3.54,16.47-5.17,24.88-7.14,9-2.11,18.11-3.81,26.8-7.07,1.7-.64,3.4-1.31,5-2.18,8.49-4.6,10.14-14.66,3.54-21.85-5.02-5.46-11.72-7.26-18.77-8.21-11.99-1.61-23.18,1.38-34.11,5.87-2.2.9-4.38,1.86-6.57,2.8-.17-.24-.34-.48-.51-.72Z"/>
  <path class="cls-9" d="m153.63,260.25c-6.33,1.29-12.7,2.17-19.18,1.87-.21-8.39-5.12-15.08-8.52-22.19-10.09-21.07-19.56-42.42-29.64-63.5-15.05-31.47-29.64-63.16-44.17-94.87-1.64-3.58-3.46-7.09-5.06-10.69-.93-2.08-1.9-4.24-.02-6.37,8.44-.76,15.36,2.6,21.45,8.04,5.27,4.71,8.98,10.61,12.31,16.77,4.34,8,7.81,16.4,11.64,24.64,2.36,5.08,4.74,10.15,7.63,14.97,5.72,9.54,12.81,17.63,23.45,21.92.95.38,1.57,1.46,2.77,1.29,6.64,14.93,13.96,29.55,20.72,44.43,5.38,11.86,10.84,23.69,16.55,35.4,2.99,6.13,5.5,12.47,8.56,18.57.8,1.6,2.17,3.6-.28,5.19-2.38.67-4.6,1.91-7.14,2-.84.71-2.05.07-2.89.8l-.35.18-.39-.06c-.86.67-2.02.11-2.89.73-.53.07-1.06.14-1.59.21-.9.6-2.06.11-2.97.69Z"/>
  <path class="cls-1" d="m691.9,92.85c12.14-.7,23.18-.03,33.99-4.7,13.7,34.68,27.37,69.27,41.06,103.92,1.49-.76,1.68-1.86,2.09-2.78,10.39-23.09,20.78-46.17,31.14-69.27.99-2.21,1.79-4.5,2.59-6.79,2.25-6.49.92-12.22-3.76-17.23-.79-.85-1.9-1.48-2.31-3.05h36.67c.72,1.33-.26,2.33-.72,3.37-19.08,42.78-38.18,85.55-57.29,128.32-.25.55-.58,1.08-.74,1.66-.56,2-1.73,2.03-3.44,1.38-6.52-2.5-12.04-6.35-16.48-11.75-4.87-5.92-8.28-12.7-11.25-19.68-9.85-23.15-19.61-46.35-29.34-69.55-5.16-12.33-10.38-24.59-22.21-33.83Z"/>
  <path class="cls-4" d="m171.84,255.7c1.01-2.09-.23-3.79-1.03-5.53-3.98-8.63-8-17.24-12.04-25.85-2.51-5.34-5.11-10.63-7.58-15.99-7.59-16.48-15.45-32.84-23.18-49.25-1.03-2.19-1.93-4.45-1.73-6.96,3.62.19,6.99,1.64,10.59,2.04,14.94,1.65,28.37-2.08,40.45-10.91,2.16-1.58,4.24-3.28,6.36-4.93,2.49.39,2.66,2.69,3.44,4.37,1.9,4.08,3.51,8.3,5.42,12.37,7.69,16.41,15.55,32.74,23.13,49.2,1.96,4.25,3.96,8.48,5.99,12.7,1.05,2.17,2.11,4.35,2.07,6.86-6.83,7.6-14.97,13.6-23.58,18.95-8.87,5.51-18.18,10.16-28.32,12.93Z"/>
  <path class="cls-8" d="m47.03,64.5c-.25,2.32.3,4.41,1.31,6.56,7.44,15.87,14.73,31.82,22.14,47.7,5.17,11.1,10.45,22.14,15.68,33.21,7.69,16.29,15.59,32.48,23,48.89,5.66,12.55,11.59,24.98,17.41,37.46,2.56,5.49,4.99,11.04,7.87,16.37,1.4,2.59.86,4.95.02,7.42-15.44.82-30.37-1.81-44.98-6.58-.26-.09-.47-.36-.7-.55-.54-5.11-3.41-9.35-5.45-13.85-6.07-13.34-12.36-26.57-18.58-39.84-.65-1.39-1.81-2.42-2.42-3.82,3.12-6.63,5.26-13.53,5.48-20.92.3-10.12-2.3-19.46-7.71-28.02-.57-.89-1.1-1.81-1.64-2.71-.96-6.39-4.31-11.88-6.97-17.56-8.29-17.65-16.67-35.26-24.63-53.07-.81-1.8-2.04-3.36-2.74-5.21,7.24-3.55,14.74-6,22.95-5.48Z"/>
  <path class="cls-1" d="m994.19,116.34c-8-5.36-16.54-5-25.02-5.02-3.49,0-6.99-.04-10.48,0-3.64.05-3.64.08-3.7,3.89,0,.15,0,.3,0,.46,0,20.48-.03,40.97.04,61.45.02,6.39.68,12.73,2.92,18.79,2.94,7.95,8.48,12.65,17.06,13.76,4.46.58,8.77.07,13.11-.71.58-.1,1.16-.24,2.02-.42.16,1.32-.64,2.05-1.16,2.82-3.07,4.52-6.21,8.99-9.24,13.53-.98,1.47-2.04,2.49-3.96,2.59-7.62.42-15.18.32-22.55-1.98-13.39-4.17-21.56-14.69-22.94-29.73-.36-3.92-.41-7.88-.41-11.82-.04-22.15-.02-44.3-.02-66.46,0-.91.02-1.82,0-2.73-.1-3.38-.11-3.41-3.69-3.46-3.95-.04-7.9-.05-11.84,0-1.65.02-2.65-.45-2.49-2.3.01-.15,0-.3,0-.45-.36-6.14-.35-6.11,5.62-7.61,9.85-2.48,16.95-8.52,21.88-17.23,4.25-7.52,6.31-15.71,7.3-24.22.24-2.11.54-4.22.58-6.34.04-2.06.72-2.92,2.94-2.96,4.85-.08,4.87-.2,4.87,4.54.01,11.38-.01,22.76.01,34.14,0,3.67.06,3.72,3.8,3.73,10.63.03,21.26,0,31.89.02,3.41,0,3.46.07,3.48,3.53.03,6.49.01,12.99.01,20.16Z"/>
  <path class="cls-1" d="m640.99,223.77c7.29-7.35,8.65-15.99,8.64-25.16-.05-45.98-.06-91.97.01-137.95.02-9.46-1.11-18.44-8.61-26.07,2.79-.22,4.85-.4,6.9-.53,7.88-.53,15.7-1.6,23.52-2.67q3.18-.44,3.27,2.92c.03,1.06,0,2.12,0,3.19,0,51.6,0,103.2,0,154.8,0,1.97.04,3.95,0,5.92-.21,9.31,1.08,18.14,8.63,25.57h-42.36Z"/>
  <path class="cls-1" d="m893.79,223.85h-41.54c0-.41-.12-.79.02-.93,5.66-6.17,7.66-13.66,7.67-21.77.05-28.51.05-57.02-.02-85.54-.02-8.1-1.94-15.63-7.69-21.76-.16-.17-.1-.55-.2-1.17,1.93-.13,3.85-.31,5.77-.39,7.88-.34,15.75-.79,23.55-2.07,3.4-.56,3.48-.44,3.49,3.13.03,10.46.01,20.93.01,31.39,0,23.81,0,47.62,0,71.43,0,3.18.12,6.35.44,9.53.67,6.72,2.97,12.65,8.49,18.15Z"/>
  <path class="cls-5" d="m113.5,1.66c1.99.85,1.92,2.95,2.66,4.51,3.65,7.73,7.19,15.51,10.78,23.28,1.95,4.23,3.84,8.49,5.89,12.67.9,1.82.88,3.44-.22,5.1-12.53,2.41-25.17,3.71-37.91,2.67-9.22-.75-16.66-5.08-22.39-12.36-3.76-4.78-6.76-10.02-9.79-15.26-.86-1.48-.81-2.39.78-3.23,2.95-1.55,5.8-3.28,8.76-4.8,11.8-6.06,24.32-9.99,37.37-12.28,1.33-.23,2.71-.21,4.06-.3Z"/>
  <path class="cls-3" d="m62.31,197.47c2.03.06,2.88,1.49,3.45,3.1,2.38,6.69,6.07,12.77,8.88,19.27,4.41,10.22,9.42,20.19,14.14,30.28.74,1.58,1.99,3.24-.01,4.86-9.44-2.6-18.02-7.09-26.33-12.13-9.9-6.01-18.81-13.26-26.77-21.77.76-1.29,2.02-1.4,3.06-1.85,10.35-4.55,17.95-12.08,23.57-21.76Z"/>
  <path class="cls-6" d="m24.09,69.99c1.92.13,2.34,1.75,2.95,3.08,4.34,9.49,8.61,19.03,12.98,28.51,3.05,6.6,6.14,13.19,9.38,19.69,3.44,6.92,6.58,13.97,9.6,21.08.57,1.34,1.17,2.56-.57,3.47-1.9-1.93-3.83-3.84-5.7-5.8-6.24-6.56-13.95-10.43-22.66-12.53-.87-.21-1.82-.18-2.54-.83,1.24-1.94,1.35-3.85.24-5.95-5.46-10.27-9.4-21.24-14.8-31.54-1.02-1.94-2.19-3.58-4.17-4.57.51-3,2.17-5.55,3.24-8.33.48-1.25,1.43-1.86,2.53-2.38,3.1-1.48,6.23-2.88,9.52-3.9Z"/>
  <path class="cls-1" d="m871.21,40.74c9.12.02,16.3,7.4,16.18,16.64-.11,9.04-7.26,16.23-16.16,16.25-9.04.02-16.53-7.44-16.54-16.46,0-9.03,7.45-16.45,16.52-16.43Z"/>
  <path class="cls-7" d="m8.8,84.6c1.64-1.07,2.76-.66,3.62,1.08,2.2,4.49,4.66,8.86,6.65,13.44,2.95,6.8,5.89,13.6,9.26,20.2.61,1.2,1.05,2.5,1.48,3.79.69,2.07-.28,3.15-2.27,3.55-9.25-.81-18.37-.46-27.54,3.51.12-6.77.53-13,1.48-19.21,1.23-8.06,3.53-15.84,5.83-23.63.29-.97.99-1.82,1.49-2.73Z"/>
  <path class="cls-4" d="m161.82,258.5c.75-1.01,1.83-.86,2.88-.8-.82.76-1.82.89-2.88.8Z"/>
  <path class="cls-4" d="m158.18,259.34c.78-.97,1.85-.79,2.89-.73-.83.76-1.84.83-2.89.73Z"/>
  <path class="cls-4" d="m153.63,260.25c.81-.98,1.9-.78,2.96-.69-.87.75-1.89.81-2.96.69Z"/>
  <path class="cls-1" d="m522.11,154.89c1.06.06,2.13,0,3.19,0,30.07,0,60.14,0,90.21,0,1.06,0,2.14-.1,3.19.02,2.32.26,2.8-.87,2.75-2.94-.15-5.79-.87-11.5-2.18-17.12-3.51-15.1-10.53-28.09-23.45-37.26-10.1-7.16-21.52-10.21-33.82-10.49-16.64-.37-31.79,3.9-45.16,14.01-29.03,21.93-33.29,66.24-16.91,93.05,13.04,21.34,32.84,31.67,57.1,34.26,16.5,1.76,32.3-1.83,47.73-7.4,1.32-.48,2.36-1.17,3.1-2.47,4.11-7.24,8.3-14.44,12.46-21.65-.18-.27-.36-.54-.55-.8-4.98,2.48-10.03,4.81-15.23,6.77-14.59,5.51-29.45,8.15-45.03,4.75-22.93-5.01-40.45-27.09-39.76-50.3.05-1.74.6-2.53,2.37-2.42Zm27.67-49.3c8.44-1.56,16.64-1.03,24.37,2.83,10.41,5.2,16.12,13.84,17.91,25.23.33,2.08-.16,2.98-2.52,2.97-22.29-.1-44.57-.1-66.86-.13-.13,0-.27-.13-.74-.37.94-13.4,10.27-27.29,27.83-30.53Z"/>
</svg>