<?xml version="1.0" encoding="UTF-8"?><svg id="Layer_1" xmlns="http://www.w3.org/2000/svg" viewBox="0 0 560.21 205.79"><defs><style>.cls-1{fill:#4fc2ea;}.cls-2{fill:#4b4a49;}.cls-3{fill:#5ac3ee;}</style></defs><path class="cls-2" d="M106.47,153.06c0,28.29-20.33,42.44-61,42.44-13.82,0-26.67-1.67-38.54-4.99l5.32-24.2c11.72,4.06,22.79,6.08,33.22,6.08,11.58,0,19.9-1.12,24.96-3.37,5.07-2.24,7.6-6,7.6-11.29s-2.39-10.13-7.16-13.89c-4.13-3.33-12.48-7.67-25.07-13.03-11.44-4.92-19.94-10.27-25.51-16.07-7.02-7.31-10.53-16.31-10.53-27.02,0-12.45,4.61-22.18,13.84-29.2,9.22-7.02,22.48-10.54,39.78-10.54,14.18,0,26.09,1.19,35.71,3.58l-4.01,24.09c-9.77-3.54-20.34-5.32-31.69-5.32-17.08,0-25.62,4.56-25.62,13.68,0,4.85,1.99,8.79,5.97,11.83,3.47,2.61,11.03,6.26,22.68,10.97,12.38,4.99,21.64,10.49,27.79,16.5,8.18,8.04,12.26,17.95,12.26,29.74Z"/><path class="cls-2" d="M284.7,153.06c0,28.29-20.33,42.44-61,42.44-13.82,0-26.67-1.67-38.54-4.99l5.32-24.2c11.72,4.06,22.79,6.08,33.22,6.08,11.58,0,19.9-1.12,24.96-3.37,5.07-2.24,7.6-6,7.6-11.29s-2.39-10.13-7.16-13.89c-4.13-3.33-12.48-7.67-25.07-13.03-11.44-4.92-19.94-10.27-25.51-16.07-7.02-7.31-10.53-16.31-10.53-27.02,0-12.45,4.61-22.18,13.84-29.2,9.22-7.02,22.48-10.54,39.78-10.54,14.18,0,26.09,1.19,35.71,3.58l-4.01,24.09c-9.77-3.54-20.34-5.32-31.69-5.32-17.08,0-25.62,4.56-25.62,13.68,0,4.85,1.99,8.79,5.97,11.83,3.47,2.61,11.03,6.26,22.68,10.97,12.38,4.99,21.64,10.49,27.79,16.5,8.18,8.04,12.26,17.95,12.26,29.74Z"/><path class="cls-2" d="M422.87,191.59h-35.49c0-3.33-6.11-14.8-18.34-34.41-13.03-20.91-22.25-31.37-27.68-31.37h-3.26c0,16.5.4,38.43,1.19,65.78h-30.61c.94-21.86,1.41-46.49,1.41-73.92s-.47-48.81-1.41-67.41h30.61c-.8,20.05-1.19,38.86-1.19,56.44h2.39c3.18,0,11.21-8.9,24.09-26.7,12.52-17.29,18.78-27.21,18.78-29.74h32.35c0,2.39-6.62,11.4-19.87,27.03-13.68,16.13-23.66,26.41-29.96,30.83v1.62c7.38,3.84,18.99,18.13,34.84,42.88,14.76,23.01,22.14,36,22.14,38.97Z"/><path class="cls-2" d="M156.27,194.06c-4.21,3.75-9.27,3.5-10.06,3.45-5.05-.34-8.19-3.38-9.09-4.28-4.66-4.66-4.48-10.76-4.43-11.82.24-13.06.15-26.74-.38-40.99-.7-19.08-2.09-37.12-3.94-54.03l33.39-3.36c-.9,18.43-1.44,37.57-1.51,57.39-.05,14.01.13,27.67.51,40.98.08.61.95,7.8-4.49,12.65Z"/><path class="cls-3" d="M183.35,28.01c1.34,1.68,1.93,3.61,1.79,5.78-.14,2.17-1.24,4.08-3.29,5.71-1.73,1.38-3.51,1.91-5.35,1.6-1.84-.31-3.37-1.23-4.59-2.76-1.34-1.68-1.93-3.59-1.76-5.74.16-2.15,1.28-4.05,3.36-5.7,1.75-1.4,3.53-1.94,5.34-1.62,1.81.32,3.31,1.23,4.51,2.73Z"/><path class="cls-3" d="M119.21,62.21c-.41,1.29-1.21,2.27-2.4,2.96-1.19.68-2.57.78-4.14.27-1.33-.42-2.23-1.17-2.71-2.24-.48-1.07-.54-2.2-.16-3.37.41-1.29,1.21-2.26,2.39-2.93,1.18-.67,2.57-.74,4.16-.24,1.34.43,2.25,1.17,2.72,2.23.47,1.06.51,2.16.15,3.32Z"/><path class="cls-1" d="M452.93,71.03h-16.92c.46-10.9.7-19.69.7-26.36s-.15-14.07-.44-21.8l-10.14,4.44-3.3-6.08,22.24-17.11h7.86c-.47,17.41-.7,30.93-.7,40.56,0,6.46.23,15.25.7,26.36Z"/><path class="cls-1" d="M526.7,37.51c0,12.08-2.53,21.11-7.6,27.09-5.07,5.98-12.42,8.97-22.05,8.97s-16.38-2.63-21.14-7.89c-4.75-5.26-7.13-13.61-7.13-25.06s2.57-21.04,7.7-27.76c5.13-6.72,12.52-10.08,22.15-10.08s16.24,2.99,20.98,8.97c4.73,5.98,7.1,14.57,7.1,25.76ZM511.05,41.5c0-7.73-1.08-14.09-3.23-19.07-2.15-4.98-5.7-7.48-10.65-7.48-8.37,0-12.55,7.14-12.55,21.42,0,8.49,1.09,14.78,3.26,18.85,2.18,4.08,5.69,6.12,10.55,6.12,8.41,0,12.61-6.61,12.61-19.84Z"/><path class="cls-1" d="M536.86,45.47c-22.78-1.18-46.39-1.19-70.77.28-2.44.15-4.88.31-7.3.48-.05-4.72-.1-9.43-.15-14.15,22.21,2.61,46.22,2.81,71.56-.9,2.36-.35,4.7-.72,7.01-1.12-.12,5.14-.23,10.28-.35,15.41Z"/><path class="cls-3" d="M160.27,142.92c0,6.37.03,12.82.12,19.36.09,6.38.22,12.68.4,18.9.2,1.29.68,5.4-1.74,9.5-2.41,4.08-6.95,6.88-11.9,6.89-5.16.01-8.59-3.01-9.51-3.84-4.42-4.02-4.85-9.32-4.91-10.45.05-4.91.06-9.08.06-12.28,0-7.89,0-11.84-.12-14.94-.04-.96-.14-3.48-.18-6.93-.02-1.89-.02-3.44-.01-4.44,2.42-3.13,4.68-4.05,6.29-4.32,4.35-.73,6.86,2.85,12.7,3.64,3.61.49,6.72-.33,8.79-1.1Z"/><path class="cls-3" d="M165.56,51.32c0,5.26-1.8,9.85-5.39,13.8s-8.6,5.91-15.01,5.91c-5.41,0-9.64-1.7-12.69-5.1-3.05-3.4-4.58-7.5-4.58-12.29,0-5.26,1.8-9.81,5.39-13.68,3.59-3.86,8.64-5.8,15.13-5.8,5.49,0,9.72,1.68,12.69,5.04,2.98,3.36,4.46,7.4,4.46,12.12Z"/></svg>