<?xml version="1.0" encoding="UTF-8"?>
<svg id="Layer_1" data-name="Layer 1" xmlns="http://www.w3.org/2000/svg" viewBox="0 0 280.42 170.38">
  <defs>
    <style>
      .cls-1 {
        fill: #868686;
      }

      .cls-1, .cls-2 {
        stroke-width: 0px;
      }

      .cls-2 {
        fill: #cc1719;
      }
    </style>
  </defs>
  <path class="cls-1" d="m106.93,23.48h6.55c6.8,0,11.67,1.59,14.6,4.78,2.94,3.19,4.4,9.1,4.4,17.73,0,6.52-.66,11.24-1.97,14.15-1.31,2.91-3.13,4.95-5.45,6.11-2.32,1.17-6.22,1.75-11.7,1.75h-6.43V23.48Z"/>
  <polygon class="cls-1" points="0 5.01 26.14 5.01 26.14 33.5 54.77 33.5 54.77 5.03 81.03 5.03 81.03 86.57 54.77 86.57 54.77 53.54 26.14 53.54 26.14 119.49 0 119.49 0 5.01"/>
  <rect class="cls-1" x="253.95" y="32.89" width="26.26" height="53.68"/>
  <rect class="cls-2" x="253.95" y="4.72" width="26.26" height="23.43"/>
  <path class="cls-1" d="m155.28,87.81h-35.4c3.56-.31,7.41-1.05,11.55-2.24,4.08-1.16,7.9-3.49,11.46-6.99,3.56-3.5,6.34-7.84,8.34-13.02,2-5.18,3-12.47,3-21.87,0-6-.67-11.68-2.02-17.04-1.35-5.36-3.52-10.06-6.52-14.1-2.99-4.04-6.79-7.14-11.37-9.3-3.88-1.83-8.8-2.88-14.74-3.16l35.69-.08,9.07-.02,16.34.02v33.24L207.36.02h33.82l-30.05,33.05,31.43,54.9h-31.3l-17.35-36.12-13.21,14.7v21.42h-25.41v-.16Z"/>
  <polygon class="cls-1" points="72.37 119.53 69.88 119.53 69.88 112.69 63.14 112.69 63.14 119.53 60.65 119.53 60.65 103.67 63.14 103.67 63.14 110.49 69.88 110.49 69.88 103.67 72.37 103.67 72.37 119.53"/>
  <path class="cls-1" d="m85.4,108.24c0-.72-.25-1.3-.75-1.73-.5-.43-1.13-.65-1.88-.65h-4.15v4.76h4.12c.76,0,1.39-.22,1.9-.66.51-.44.77-1.01.77-1.72m3.13,11.29h-3.16l-3.53-6.71h-3.23v6.71h-2.5v-15.87h6.59c1.49,0,2.73.41,3.71,1.22.98.82,1.47,1.93,1.47,3.33,0,1.3-.44,2.36-1.32,3.2-.53.5-1.22.85-2.05,1.07l4,7.05Z"/>
  <polygon class="cls-1" points="101.86 103.67 96.68 119.53 94.77 119.53 89.59 103.67 92.3 103.67 95.86 115.16 95.93 115.16 99.34 103.67 101.86 103.67"/>
  <path class="cls-1" d="m111.92,113.98l-2.47-7.12h-.09l-2.47,7.12h5.04Zm4.5,5.55h-2.57l-1.22-3.51h-6.45l-1.22,3.51h-2.57l5.91-15.87h2.21l5.91,15.87Z"/>
  <polygon class="cls-1" points="128.67 105.86 124.12 105.86 124.12 119.53 121.63 119.53 121.63 105.86 117.18 105.86 117.18 103.67 128.67 103.67 128.67 105.86"/>
  <path class="cls-1" d="m142.62,115.18c0,1.56-.62,2.73-1.86,3.54-1.08.7-2.47,1.04-4.15,1.04-2.26,0-4.28-.7-6.05-2.11l1.65-1.86c1.54,1.13,3.05,1.7,4.55,1.7.94,0,1.7-.17,2.28-.52.72-.42,1.08-1.06,1.08-1.9,0-.5-.18-.93-.54-1.29-.36-.36-.8-.6-1.32-.73-.33-.06-.83-.15-1.51-.27l-.97-.18c-2.9-.55-4.36-2.02-4.36-4.42,0-1.47.51-2.64,1.53-3.51.99-.82,2.25-1.22,3.79-1.22,1.16,0,2.3.22,3.41.66.64.26,1.31.6,2,1.04l-1.39,1.93c-1.32-.91-2.64-1.36-3.96-1.36-.82,0-1.48.17-2,.52-.6.41-.89.99-.89,1.74,0,1.31,1.06,2.14,3.18,2.47l1.18.18c2.89.44,4.33,1.96,4.33,4.56"/>
  <polygon class="cls-1" points="158.49 119.53 155.6 119.53 151.16 111.83 148.39 114.62 148.39 119.53 145.89 119.53 145.89 103.67 148.39 103.67 148.39 111.85 155.15 103.67 158.09 103.67 152.73 110.01 158.49 119.53"/>
  <path class="cls-1" d="m169.97,113.98v-4.76c0-1.01-.3-1.85-.91-2.52-.6-.67-1.42-1-2.46-1s-1.86.33-2.46,1c-.6.67-.91,1.5-.91,2.52v4.76c0,1.01.31,1.85.92,2.52.61.67,1.43,1,2.45,1s1.86-.33,2.46-1c.6-.66.91-1.5.91-2.52m2.5-.14c0,2.73-1.22,4.56-3.65,5.48-.75.29-1.49.43-2.21.43s-1.42-.14-2.18-.42c-.76-.28-1.39-.64-1.9-1.08-1.19-1.06-1.79-2.53-1.79-4.42v-4.49c0-2.74,1.22-4.56,3.65-5.48.75-.29,1.49-.43,2.21-.43s1.42.14,2.18.42c.76.28,1.39.64,1.9,1.08,1.19,1.06,1.79,2.53,1.79,4.42v4.49Z"/>
  <path class="cls-1" d="m190.61,114.02v-4.83c0-1.01-.31-1.81-.92-2.42-.61-.6-1.44-.9-2.47-.9h-3.16v11.47h3.16c1.05,0,1.88-.3,2.48-.9.6-.6.91-1.41.91-2.42m2.5-.26c0,1.38-.34,2.56-1.01,3.56-1,1.48-2.5,2.22-4.47,2.22h-6.05v-15.87h6.05c1.98,0,3.47.74,4.47,2.22.67,1,1.01,2.18,1.01,3.56v4.31Z"/>
  <path class="cls-1" d="m205.91,108.24c0-.72-.25-1.3-.75-1.73-.5-.43-1.13-.65-1.88-.65h-4.14v4.76h4.12c.75,0,1.39-.22,1.9-.66.51-.44.77-1.01.77-1.72m3.13,11.29h-3.15l-3.53-6.71h-3.23v6.71h-2.5v-15.87h6.59c1.49,0,2.73.41,3.71,1.22.98.82,1.47,1.93,1.47,3.33,0,1.3-.44,2.36-1.32,3.2-.53.5-1.22.85-2.05,1.07l4,7.05Z"/>
  <path class="cls-1" d="m223.53,114.07c0,1.65-.55,3.01-1.66,4.08-1.11,1.07-2.52,1.61-4.23,1.61s-3.08-.54-4.2-1.63c-1.12-1.09-1.68-2.44-1.68-4.06v-10.4h2.5v10.52c0,.94.32,1.72.96,2.36.64.64,1.45.95,2.43.95,1.04,0,1.86-.3,2.47-.91.61-.6.92-1.4.92-2.4v-10.52h2.5v10.4Z"/>
  <path class="cls-1" d="m238.86,115.18c0,1.56-.62,2.73-1.86,3.54-1.08.7-2.47,1.04-4.15,1.04-2.26,0-4.28-.7-6.05-2.11l1.65-1.86c1.54,1.13,3.05,1.7,4.55,1.7.94,0,1.7-.17,2.28-.52.72-.42,1.08-1.06,1.08-1.9,0-.5-.18-.93-.54-1.29-.36-.36-.8-.6-1.32-.73-.33-.06-.83-.15-1.51-.27l-.97-.18c-2.9-.55-4.36-2.02-4.36-4.42,0-1.47.51-2.64,1.53-3.51.99-.82,2.25-1.22,3.79-1.22,1.16,0,2.3.22,3.41.66.64.26,1.31.6,2,1.04l-1.39,1.93c-1.32-.91-2.64-1.36-3.95-1.36-.82,0-1.48.17-2,.52-.6.41-.89.99-.89,1.74,0,1.31,1.06,2.14,3.18,2.47l1.18.18c2.89.44,4.33,1.96,4.33,4.56"/>
  <polygon class="cls-1" points="252.22 105.86 247.67 105.86 247.67 119.53 245.18 119.53 245.18 105.86 240.72 105.86 240.72 103.67 252.22 103.67 252.22 105.86"/>
  <polygon class="cls-1" points="265.2 103.67 260.02 119.53 258.11 119.53 252.93 103.67 255.65 103.67 259.2 115.16 259.27 115.16 262.68 103.67 265.2 103.67"/>
  <path class="cls-1" d="m276.44,113.98v-4.76c0-1.01-.3-1.85-.91-2.52-.6-.67-1.42-1-2.46-1s-1.86.33-2.46,1c-.6.67-.91,1.5-.91,2.52v4.76c0,1.01.31,1.85.92,2.52.61.67,1.43,1,2.45,1s1.86-.33,2.46-1c.6-.66.91-1.5.91-2.52m2.5-.14c0,2.73-1.22,4.56-3.65,5.48-.75.29-1.49.43-2.21.43s-1.42-.14-2.18-.42c-.76-.28-1.39-.64-1.9-1.08-1.19-1.06-1.79-2.53-1.79-4.42v-4.49c0-2.74,1.22-4.56,3.65-5.48.75-.29,1.49-.43,2.21-.43s1.42.14,2.18.42c.76.28,1.39.64,1.9,1.08,1.19,1.06,1.79,2.53,1.79,4.42v4.49Z"/>
  <polygon class="cls-1" points="162.28 156.49 157.73 156.49 157.73 170.15 155.23 170.15 155.23 156.49 150.78 156.49 150.78 154.29 162.28 154.29 162.28 156.49"/>
  <polygon class="cls-1" points="175.17 170.15 164.64 170.15 164.64 154.29 175.17 154.29 175.17 156.49 167.14 156.49 167.14 161.11 174.01 161.11 174.01 163.31 167.14 163.31 167.14 167.96 175.17 167.96 175.17 170.15"/>
  <polygon class="cls-1" points="190.04 170.15 187.55 170.15 187.55 163.31 180.81 163.31 180.81 170.15 178.32 170.15 178.32 154.29 180.81 154.29 180.81 161.11 187.55 161.11 187.55 154.29 190.04 154.29 190.04 170.15"/>
  <polygon class="cls-1" points="205.87 170.15 203.52 170.15 196.29 158.75 196.29 170.15 193.79 170.15 193.79 154.29 196.16 154.29 203.38 165.67 203.38 154.29 205.87 154.29 205.87 170.15"/>
  <path class="cls-1" d="m218.74,164.6v-4.76c0-1.01-.3-1.85-.91-2.52-.6-.67-1.42-1-2.46-1s-1.86.33-2.46,1c-.6.67-.91,1.5-.91,2.52v4.76c0,1.01.31,1.85.92,2.52.61.67,1.43,1,2.45,1s1.86-.33,2.46-1c.6-.67.91-1.5.91-2.52m2.5-.14c0,2.73-1.22,4.56-3.65,5.48-.75.29-1.49.43-2.21.43s-1.42-.14-2.18-.42c-.76-.28-1.39-.64-1.9-1.08-1.19-1.06-1.79-2.53-1.79-4.42v-4.49c0-2.73,1.22-4.56,3.65-5.48.75-.29,1.49-.43,2.21-.43s1.42.14,2.18.42c.76.28,1.39.64,1.89,1.08,1.19,1.06,1.79,2.53,1.79,4.42v4.49Z"/>
  <polygon class="cls-1" points="235.14 170.15 224.85 170.15 224.85 154.29 227.34 154.29 227.34 167.96 235.14 167.96 235.14 170.15"/>
  <path class="cls-1" d="m246.61,164.6v-4.76c0-1.01-.3-1.85-.91-2.52-.6-.67-1.42-1-2.46-1s-1.86.33-2.46,1c-.6.67-.91,1.5-.91,2.52v4.76c0,1.01.31,1.85.92,2.52.61.67,1.43,1,2.45,1s1.86-.33,2.46-1c.6-.67.91-1.5.91-2.52m2.5-.14c0,2.73-1.22,4.56-3.65,5.48-.75.29-1.49.43-2.21.43s-1.42-.14-2.18-.42c-.76-.28-1.39-.64-1.9-1.08-1.19-1.06-1.79-2.53-1.79-4.42v-4.49c0-2.73,1.22-4.56,3.65-5.48.75-.29,1.49-.43,2.21-.43s1.42.14,2.18.42c.76.28,1.39.64,1.9,1.08,1.19,1.06,1.79,2.53,1.79,4.42v4.49Z"/>
  <path class="cls-1" d="m264.37,164.61c0,1.68-.55,3.06-1.65,4.15-1.1,1.08-2.51,1.62-4.24,1.62-1.9,0-3.42-.66-4.55-1.99-.89-1.04-1.34-2.3-1.34-3.76v-4.96c0-1.63.56-2.98,1.67-4.06,1.11-1.07,2.52-1.61,4.22-1.61,1.49,0,2.77.43,3.85,1.29,1.08.86,1.72,1.99,1.94,3.4h-2.5c-.19-.77-.58-1.37-1.17-1.79-.59-.42-1.3-.64-2.13-.64-.97,0-1.78.31-2.43.92-.64.61-.97,1.39-.97,2.35v5.33c0,.95.31,1.73.94,2.35.63.61,1.44.92,2.45.92s1.82-.3,2.45-.91c.63-.6.94-1.39.94-2.36v-1.25h-3.18v-2.2h5.67v3.2Z"/>
  <path class="cls-1" d="m275.92,164.6l-2.47-7.12h-.09l-2.47,7.12h5.04Zm4.5,5.55h-2.57l-1.22-3.51h-6.45l-1.22,3.51h-2.57l5.91-15.87h2.21l5.91,15.87Z"/>
  <polygon class="cls-1" points="230.98 99.73 232.3 101.98 233.62 101.98 234.83 99.73 233.34 99.73 232.94 100.66 232.54 99.73 230.98 99.73"/>
  <polygon class="cls-1" points="43.51 144.74 40.62 144.74 36.18 137.03 33.41 139.82 33.41 144.74 30.91 144.74 30.91 128.87 33.41 128.87 33.41 137.05 40.17 128.87 43.11 128.87 37.75 135.21 43.51 144.74"/>
  <polygon class="cls-1" points="56.4 144.74 45.87 144.74 45.87 128.87 56.4 128.87 56.4 131.07 48.37 131.07 48.37 135.69 55.25 135.69 55.25 137.89 48.37 137.89 48.37 142.54 56.4 142.54 56.4 144.74"/>
  <polygon class="cls-1" points="73.7 144.74 71.21 144.74 71.21 134.67 67.7 142.47 65.56 142.47 62.05 134.67 62.05 144.74 59.55 144.74 59.55 128.87 61.82 128.87 66.6 139.2 66.65 139.2 71.43 128.87 73.7 128.87 73.7 144.74"/>
  <rect class="cls-1" x="77.44" y="128.87" width="2.5" height="15.87"/>
  <path class="cls-1" d="m91.11,139.66c0,1.6-.46,2.88-1.39,3.83-.96,1-2.26,1.5-3.91,1.5s-3.12-.67-4.19-2l1.88-1.31c.71.74,1.48,1.11,2.31,1.11s1.49-.25,2.01-.76c.53-.51.79-1.15.79-1.94v-11.22h2.5v10.79Z"/>
  <path class="cls-1" d="m106.41,140.38c0,1.56-.62,2.73-1.86,3.54-1.08.69-2.47,1.04-4.15,1.04-2.26,0-4.28-.7-6.05-2.11l1.65-1.86c1.54,1.13,3.05,1.7,4.55,1.7.94,0,1.7-.17,2.28-.52.72-.42,1.08-1.06,1.08-1.9,0-.5-.18-.93-.54-1.29-.36-.36-.8-.61-1.32-.73-.33-.06-.83-.15-1.51-.27l-.97-.18c-2.9-.55-4.36-2.02-4.36-4.42,0-1.47.51-2.64,1.53-3.51.99-.82,2.25-1.22,3.79-1.22,1.16,0,2.3.22,3.41.66.64.26,1.31.61,2,1.04l-1.39,1.93c-1.32-.91-2.64-1.36-3.96-1.36-.82,0-1.48.17-2,.52-.6.41-.89.99-.89,1.75,0,1.31,1.06,2.14,3.18,2.47l1.18.18c2.89.44,4.33,1.96,4.33,4.56"/>
  <polygon class="cls-1" points="122.28 144.74 119.39 144.74 114.95 137.03 112.17 139.82 112.17 144.74 109.68 144.74 109.68 128.87 112.17 128.87 112.17 137.05 118.93 128.87 121.88 128.87 116.52 135.21 122.28 144.74"/>
  <rect class="cls-1" x="124.64" y="128.87" width="2.5" height="15.87"/>
  <polygon class="cls-1" points="142.64 144.74 140.14 144.74 140.14 137.89 133.41 137.89 133.41 144.74 130.91 144.74 130.91 128.87 133.41 128.87 133.41 135.69 140.14 135.69 140.14 128.87 142.64 128.87 142.64 144.74"/>
  <rect class="cls-1" x="151.89" y="128.87" width="2.5" height="15.87"/>
  <polygon class="cls-1" points="170.24 144.74 167.89 144.74 160.66 133.33 160.66 144.74 158.16 144.74 158.16 128.87 160.53 128.87 167.75 140.25 167.75 128.87 170.24 128.87 170.24 144.74"/>
  <polygon class="cls-1" points="183.86 144.74 173.17 144.74 173.17 142.57 181.03 131.07 173.62 131.07 173.62 128.87 183.86 128.87 183.86 131.04 176 142.56 183.86 142.54 183.86 144.74"/>
  <polygon class="cls-1" points="197.33 144.74 186.8 144.74 186.8 128.87 197.33 128.87 197.33 131.07 189.3 131.07 189.3 135.69 196.17 135.69 196.17 137.89 189.3 137.89 189.3 142.54 197.33 142.54 197.33 144.74"/>
  <polygon class="cls-1" points="212.56 144.74 210.2 144.74 202.97 133.33 202.97 144.74 200.48 144.74 200.48 128.87 202.84 128.87 210.06 140.25 210.06 128.87 212.56 128.87 212.56 144.74"/>
  <path class="cls-1" d="m223.71,139.66c0,1.6-.46,2.88-1.39,3.83-.96,1-2.26,1.5-3.91,1.5s-3.12-.67-4.19-2l1.88-1.31c.71.74,1.48,1.11,2.31,1.11s1.49-.25,2.01-.76c.53-.51.79-1.15.79-1.94v-11.22h2.5v10.79Z"/>
  <polygon class="cls-1" points="237.94 144.74 227.42 144.74 227.42 128.87 237.94 128.87 237.94 131.07 229.91 131.07 229.91 135.69 236.79 135.69 236.79 137.89 229.91 137.89 229.91 142.54 237.94 142.54 237.94 144.74"/>
  <path class="cls-1" d="m250.37,133.45c0-.72-.25-1.29-.75-1.73-.5-.43-1.13-.65-1.88-.65h-4.14v4.76h4.12c.75,0,1.38-.22,1.9-.66.51-.44.76-1.01.76-1.72m3.13,11.29h-3.16l-3.53-6.71h-3.23v6.71h-2.5v-15.87h6.59c1.49,0,2.73.41,3.71,1.22.98.82,1.47,1.93,1.47,3.33,0,1.3-.44,2.36-1.32,3.2-.53.5-1.22.85-2.05,1.07l4,7.05Z"/>
  <path class="cls-1" d="m264.14,139.18l-2.47-7.12h-.09l-2.47,7.12h5.04Zm4.5,5.55h-2.57l-1.22-3.51h-6.45l-1.22,3.51h-2.57l5.91-15.87h2.21l5.91,15.87Z"/>
  <rect class="cls-1" x="276.31" y="128.87" width="2.5" height="15.87"/>
  <polygon class="cls-1" points="176.74 125.07 178.06 127.31 179.38 127.31 180.59 125.07 179.1 125.07 178.7 125.99 178.3 125.07 176.74 125.07"/>
</svg>